<svg width="20" height="20" viewBox="0 0 20 20" fill="none" xmlns="http://www.w3.org/2000/svg">
<path d="M2.49999 0H13.1206L18.75 5.60752V18.75C18.75 19.4406 18.19 20 17.5 20H2.49999C1.80997 20 1.25 19.4406 1.25 18.75V1.24999C1.25 0.559387 1.81003 0 2.49999 0Z" fill="#E2574C"/>
<path d="M18.7319 5.62495H14.375C13.685 5.62495 13.125 5.06498 13.125 4.37496V0.0124512L18.7319 5.62495Z" fill="#B53629"/>
<path d="M14.0613 9.47695C14.2707 9.47695 14.3732 9.29445 14.3732 9.11758C14.3732 8.93444 14.2663 8.75757 14.0613 8.75757H12.8688C12.6357 8.75757 12.5057 8.95067 12.5057 9.16382V12.0944C12.5057 12.3557 12.6545 12.5007 12.8557 12.5007C13.0557 12.5007 13.2051 12.3557 13.2051 12.0944V11.2901H13.9264C14.1501 11.2901 14.262 11.1069 14.262 10.9251C14.262 10.747 14.1501 10.57 13.9264 10.57H13.2051V9.47695H14.0613ZM10.0307 8.75757H9.1582C8.92132 8.75757 8.75318 8.92008 8.75318 9.1613V12.0969C8.75318 12.3963 8.99504 12.4901 9.16816 12.4901H10.0838C11.1675 12.4901 11.8832 11.777 11.8832 10.6763C11.8826 9.51258 11.2089 8.75757 10.0307 8.75757ZM10.0726 11.7664H9.54072V9.48134H10.0201C10.7458 9.48134 11.0613 9.96824 11.0613 10.6401C11.0613 11.2689 10.7513 11.7664 10.0726 11.7664ZM6.87636 8.75757H6.01199C5.7676 8.75757 5.63135 8.91879 5.63135 9.16382V12.0944C5.63135 12.3557 5.78759 12.5007 5.99757 12.5007C6.20755 12.5007 6.36379 12.3557 6.36379 12.0944V11.2388H6.90565C7.57439 11.2388 8.12628 10.765 8.12628 10.0032C8.12634 9.25759 7.59386 8.75757 6.87636 8.75757ZM6.862 10.5514H6.36385V9.44571H6.862C7.1695 9.44571 7.36512 9.6857 7.36512 9.99883C7.36448 10.3114 7.1695 10.5514 6.862 10.5514Z" fill="white"/>
</svg>
