<svg width="60" height="73" viewBox="0 0 60 73" fill="none" xmlns="http://www.w3.org/2000/svg">
<g filter="url(#filter0_d)">
<path d="M30 0C18.9722 0 9.99995 8.97223 9.99995 20C9.99995 23.3106 10.8276 26.593 12.4011 29.5044L28.9063 59.3555C29.126 59.7534 29.5447 60 30 60C30.4553 60 30.874 59.7534 31.0937 59.3555L47.605 29.4946C49.1723 26.593 50 23.3105 50 19.9999C50 8.97223 41.0278 0 30 0ZM30 30C24.4861 30 20 25.5139 20 20C20 14.4861 24.4861 10.0001 30 10.0001C35.5139 10.0001 40 14.4861 40 20C40 25.5139 35.5139 30 30 30Z" fill="#009A9F"/>
</g>
<circle cx="30" cy="66" r="2" fill="#009A9F"/>
<defs>
<filter id="filter0_d" x="-6" y="0" width="72" height="73" filterUnits="userSpaceOnUse" color-interpolation-filters="sRGB">
<feFlood flood-opacity="0" result="BackgroundImageFix"/>
<feColorMatrix in="SourceAlpha" type="matrix" values="0 0 0 0 0 0 0 0 0 0 0 0 0 0 0 0 0 0 127 0"/>
<feOffset dy="7"/>
<feGaussianBlur stdDeviation="3"/>
<feColorMatrix type="matrix" values="0 0 0 0 0 0 0 0 0 0.603922 0 0 0 0 0.623529 0 0 0 0.29 0"/>
<feBlend mode="normal" in2="BackgroundImageFix" result="effect1_dropShadow"/>
<feBlend mode="normal" in="SourceGraphic" in2="effect1_dropShadow" result="shape"/>
</filter>
</defs>
</svg>
