<svg width="48" height="48" viewBox="0 0 48 48" fill="none" xmlns="http://www.w3.org/2000/svg">
<g clip-path="url(#clip0)">
<path d="M19.0834 32.3449L25.7124 12.4574C25.958 11.7206 25.5598 10.9242 24.823 10.6786C24.0864 10.4331 23.2899 10.8312 23.0442 11.568L16.4152 31.4555C16.1696 32.1923 16.5678 32.9887 17.3046 33.2343C17.452 33.2834 17.602 33.3068 17.7494 33.3068C18.3382 33.3069 18.8869 32.9342 19.0834 32.3449Z" fill="#009A9F"/>
<path d="M29.0187 26.1753C31.345 26.1753 33.2375 24.2828 33.2375 21.9565C33.2375 19.6303 31.345 17.7378 29.0187 17.7378C26.6925 17.7378 24.8 19.6303 24.8 21.9565C24.8 24.2828 26.6925 26.1753 29.0187 26.1753ZM29.0187 20.5503C29.7941 20.5503 30.425 21.1811 30.425 21.9565C30.425 22.7319 29.7941 23.3628 29.0187 23.3628C28.2433 23.3628 27.6125 22.7319 27.6125 21.9565C27.6125 21.1811 28.2433 20.5503 29.0187 20.5503Z" fill="#009A9F"/>
<path d="M13.1088 17.7378C10.7825 17.7378 8.89001 19.6303 8.89001 21.9565C8.89001 24.2828 10.7825 26.1753 13.1088 26.1753C15.435 26.1753 17.3275 24.2828 17.3275 21.9565C17.3275 19.6303 15.4351 17.7378 13.1088 17.7378ZM13.1088 23.3628C12.3334 23.3628 11.7025 22.7319 11.7025 21.9565C11.7025 21.1811 12.3334 20.5503 13.1088 20.5503C13.8842 20.5503 14.515 21.1811 14.515 21.9565C14.515 22.7319 13.8843 23.3628 13.1088 23.3628Z" fill="#009A9F"/>
<path d="M47.719 17.4377L42.8152 10.8993L43.0065 9.56028C43.0691 9.1221 42.9218 8.67997 42.6088 8.36703L39.6256 5.38391L42.6087 2.40078C43.1578 1.85169 43.1578 0.961252 42.6087 0.412064C42.0596 -0.137029 41.1691 -0.137029 40.6199 0.412064L37.6369 3.39519L34.6538 0.412064C34.3408 0.0990332 33.8987 -0.0477793 33.4605 0.0142832L19.5393 2.003C19.2381 2.04603 18.959 2.18563 18.7438 2.40078L1.5081 19.6365C-0.502373 21.6469 -0.502373 24.9182 1.5081 26.9286L16.0921 41.5127C16.3904 41.811 16.7171 42.0641 17.0627 42.2738V42.844C17.0627 45.6871 19.3758 48.0002 22.219 48.0002H42.844C45.6871 48.0002 48.0002 45.6871 48.0002 42.844V18.2815C48.0002 17.9773 47.9015 17.6811 47.719 17.4377ZM3.49681 24.9399C2.58294 24.026 2.58294 22.5391 3.49681 21.6253L20.4011 4.721L33.1621 2.89803L35.6481 5.384L33.6594 7.37272L32.665 6.37831C32.1159 5.82922 31.2254 5.82922 30.6763 6.37831C30.1271 6.92741 30.1271 7.81785 30.6763 8.36703L34.6538 12.3446C34.9284 12.6192 35.2883 12.7565 35.6481 12.7565C36.0079 12.7565 36.3679 12.6192 36.6424 12.3446C37.1916 11.7955 37.1916 10.905 36.6424 10.3558L35.648 9.36144L37.6367 7.37272L40.1227 9.85869L38.2996 22.6198L21.3955 39.524C20.9528 39.9667 20.3642 40.2104 19.7382 40.2104C19.1121 40.2104 18.5235 39.9666 18.0808 39.524L3.49681 24.9399ZM45.1877 42.844C45.1877 44.1363 44.1363 45.1877 42.844 45.1877H22.219C20.9848 45.1877 19.9712 44.2288 19.8823 43.017C21.1542 42.9818 22.4156 42.4813 23.3841 41.5127L40.6198 24.277C40.835 24.0618 40.9746 23.7827 41.0176 23.4815L42.2526 14.8368L45.1877 18.7502V42.844Z" fill="#009A9F"/>
</g>
<defs>
<clipPath id="clip0">
<rect width="48" height="48" fill="white"/>
</clipPath>
</defs>
</svg>
